# xmcd
#
# Track frame offsets:
#	150
#	13655
#	27710
#	40842
#	52847
#	64361
#	77883
#	94390
#	104245
#	116893
#	134114
#	147172
#	159918
#	168785
#	182910
#	196729
#	211226
#	225485
#	236066
#	246639
#	259026
#	270314
#	280654
#	291812
#
# Disc length: 4043 seconds
#
# Revision: 0
# Processed by: cddbd v1.5.2PL0 Copyright (c) Steve Scherf et al.
# Submitted via: EZCDAudioConverter 2.2.2.1
#
DISCID=680fc918
DTITLE=Shirley Thoms - The Hadley Years 1970-72
DYEAR=1900
DGENRE=Australian Country
TTITLE0=Where The Golden Wattle Blooms
TTITLE1=Born To Lose
TTITLE2=Where Is The Kingdom Of Heaven
TTITLE3=Amigo's Guitar
TTITLE4=I'm Living In Two Worlds
TTITLE5=Let's Say Goodbye Like We Said Hello
TTITLE6=Faithful Old Dog
TTITLE7=Last Thing On My Mind
TTITLE8=My Daddy Was A Yodelling Cowboy
TTITLE9=Waltz Of The Angels
TTITLE10=Teenager's Waltz
TTITLE11=There's A New Moon Over My Shoulder
TTITLE12=Lie To Me
TTITLE13=Boy I Used To Know
TTITLE14=Sunday Morning Christian
TTITLE15=Let Me In
TTITLE16=P.E.A.C.E.
TTITLE17=Big Girls Don't Cry
TTITLE18=How Long Is Time
TTITLE19=She's Mary, He's John And I'm Lonesome
TTITLE20=They Listened While You Said Goodbye
TTITLE21=This Land Is Your Land
TTITLE22=Ashes
TTITLE23=The Keeper Of The Key
EXTD=
EXTT0=
EXTT1=
EXTT2=
EXTT3=
EXTT4=
EXTT5=
EXTT6=
EXTT7=
EXTT8=
EXTT9=
EXTT10=
EXTT11=
EXTT12=
EXTT13=
EXTT14=
EXTT15=
EXTT16=
EXTT17=
EXTT18=
EXTT19=
EXTT20=
EXTT21=
EXTT22=
EXTT23=
PLAYORDER=
